<?xml version="1.0" encoding="UTF-8" standalone="no"?>
<!-- Created with Inkscape (http://www.inkscape.org/) -->

<svg
   version="1.1"
   id="svg1"
   width="2000"
   height="2000"
   viewBox="0 0 2000 2000"
   xmlns="http://www.w3.org/2000/svg"
   xmlns:svg="http://www.w3.org/2000/svg">
  <defs
     id="defs1" />
  <g
     id="g1">
    <g
       id="g4"
       transform="translate(-0.1542411,0.64374729)">
      <path
         style="fill:#37b4fd"
         d="m 1052.5,1261.3097 c -54.53763,-3.5972 -107.38376,-20.6787 -155,-50.1008 -24.66659,-15.2415 -57.78321,-43.6581 -76.28477,-65.4583 -40.29901,-47.4838 -66.24769,-102.6857 -76.14799,-161.99343 -4.34617,-26.0357 -4.34708,-26.06174 -4.7737,-137.50717 L 739.87915,738 h 103.60362 c 86.259,0 105.98203,0.25675 117.81042,1.53362 114.59271,12.37021 214.63751,83.16831 265.20911,187.67898 19.8265,40.97328 30.3663,83.5382 32.4951,131.2323 0.4924,11.0303 0.8508,61.3426 0.7964,111.8051 l -0.099,91.75 -101.0975,-0.1802 c -55.6036,-0.099 -103.3475,-0.3287 -106.0975,-0.5101 z"
         id="path6" />
      <path
         style="fill:#567cfd"
         d="m 974.32397,1865.0063 c -87.35596,-9.2136 -162.26912,-58.5931 -204.05813,-134.5063 -18.34113,-33.3182 -28.53158,-68.7425 -31.25677,-108.6555 -0.57961,-8.489 -0.98546,-85.4577 -0.99424,-188.5545 L 738,1259.08 554.25,1258.7303 c -199.86888,-0.3804 -188.58125,-0.074 -216.75,-5.8764 -48.62899,-10.0163 -95.17031,-35.3387 -130.65183,-71.0856 -40.17343,-40.4738 -64.50336,-89.3833 -73.50702,-147.7683 -2.56574,-16.6377 -2.55577,-56.87902 0.0182,-73.5 12.66836,-81.80353 60.30953,-150.46302 132.10683,-190.38966 25.33943,-14.09132 51.7109,-23.32103 84.03381,-29.41088 10.84224,-2.04275 13.72137,-2.07729 200.75,-2.40845 L 740,737.95504 740.24727,557.22752 740.49453,376.5 l 0.25545,180.24512 0.25545,180.24513 98.74729,0.25981 98.74728,0.25981 -99.31042,0.24506 -99.31043,0.24507 0.41439,108.25 c 0.42662,111.44543 0.42753,111.47147 4.7737,137.50717 9.9003,59.30773 35.84898,114.50963 76.14799,161.99343 18.50156,21.8002 51.61818,50.2168 76.28477,65.4583 41.78454,25.8187 83.35821,40.7802 133.5,48.0438 13.8705,2.0093 19.158,2.1168 121.8018,2.4775 l 107.3019,0.3771 -0.3856,181.6964 c -0.3485,164.1948 -0.5491,182.8432 -2.082,193.6027 -7.0296,49.3395 -24.135,90.4857 -53.459,128.5936 -9.1371,11.8741 -35.808,38.063 -47.7158,46.8535 -38.0159,28.0638 -74.9364,43.4547 -121.4613,50.6331 -12.2543,1.8907 -48.5412,2.7995 -60.67603,1.5197 z m 647.43773,-603.7136 c 1.2439,-0.2392 3.0439,-0.2301 4,0.02 0.956,0.2503 -0.062,0.446 -2.2617,0.4349 -2.2,-0.011 -2.9823,-0.2159 -1.7383,-0.4551 z m -362.6828,-1.876 c 0.048,-1.165 0.285,-1.4019 0.6042,-0.6042 0.2889,0.7219 0.2534,1.5844 -0.079,1.9167 -0.3323,0.3323 -0.5687,-0.2584 -0.5253,-1.3125 z m 375.6711,0.921 c 0.6875,-0.2774 1.8125,-0.2774 2.5,0 0.6875,0.2774 0.125,0.5044 -1.25,0.5044 -1.375,0 -1.9375,-0.227 -1.25,-0.5044 z m 8.0625,-1.0208 c 0.7219,-0.2889 1.5844,-0.2534 1.9167,0.079 0.3323,0.3323 -0.2584,0.5687 -1.3125,0.5253 -1.165,-0.048 -1.4019,-0.285 -0.6042,-0.6042 z m 7,-1 c 0.7219,-0.2889 1.5844,-0.2534 1.9167,0.079 0.3323,0.3323 -0.2584,0.5687 -1.3125,0.5253 -1.165,-0.048 -1.4019,-0.285 -0.6042,-0.6042 z M 1791.5,1186 c 4.9271,-4.95 9.1833,-9 9.4583,-9 0.275,0 -3.5312,4.05 -8.4583,9 -4.9271,4.95 -9.1833,9 -9.4583,9 -0.275,0 3.5312,-4.05 8.4583,-9 z m 14,-15 c 0.9955,-1.1 2.035,-2 2.31,-2 0.275,0 -0.3145,0.9 -1.31,2 -0.9955,1.1 -2.035,2 -2.31,2 -0.275,0 0.3145,-0.9 1.31,-2 z m -546.268,-102 c 0,-1.925 0.2058,-2.7125 0.4573,-1.75 0.2516,0.9625 0.2516,2.5375 0,3.5 -0.2515,0.9625 -0.4573,0.175 -0.4573,-1.75 z m 604.8469,-20.5833 c 0.048,-1.165 0.285,-1.4019 0.6042,-0.6042 0.2889,0.7219 0.2534,1.5844 -0.079,1.9167 -0.3323,0.3323 -0.5687,-0.2584 -0.5253,-1.3125 z m 2,-13 c 0.048,-1.165 0.285,-1.4019 0.6042,-0.6042 0.2889,0.7219 0.2534,1.5844 -0.079,1.9167 -0.3323,0.3323 -0.5687,-0.2584 -0.5253,-1.3125 z m 1.116,-7.9167 c 0.02,-1.65 0.2445,-2.2039 0.4981,-1.231 0.2535,0.973 0.2369,2.323 -0.037,3 -0.2739,0.6771 -0.4813,-0.119 -0.461,-1.769 z m 1.1997,-24 c 0,-7.7 0.1585,-10.71781 0.3488,-6.70625 0.1903,4.01155 0.189,10.31155 0,14.00005 -0.1919,3.6884 -0.3476,0.4062 -0.346,-7.2938 z M 1867.232,978 c 0,-1.925 0.2058,-2.7125 0.4573,-1.75 0.2516,0.9625 0.2516,2.5375 0,3.5 -0.2515,0.9625 -0.4573,0.175 -0.4573,-1.75 z m -1.0741,-9 c 0,-1.375 0.227,-1.9375 0.5044,-1.25 0.2774,0.6875 0.2774,1.8125 0,2.5 -0.2774,0.6875 -0.5044,0.125 -0.5044,-1.25 z m -1.079,-7.58333 c 0.048,-1.16495 0.285,-1.4019 0.6042,-0.60417 0.2889,0.72187 0.2534,1.58438 -0.079,1.91667 -0.3323,0.33229 -0.5687,-0.25834 -0.5253,-1.3125 z m -1,-6 c 0.048,-1.16495 0.285,-1.4019 0.6042,-0.60417 0.2889,0.72187 0.2534,1.58438 -0.079,1.91667 -0.3323,0.33229 -0.5687,-0.25834 -0.5253,-1.3125 z M 1164.9243,839.25 1162.5,836.5 l 2.75,2.42431 c 1.5125,1.33338 2.75,2.57088 2.75,2.75 0,0.78428 -0.8098,0.14598 -3.0757,-2.42431 z m 639.9481,-8 c -1.2438,-1.58606 -1.2085,-1.62143 0.3776,-0.37756 0.9625,0.75485 1.75,1.54235 1.75,1.75 0,0.82304 -0.8212,0.29331 -2.1276,-1.37244 z m -13.3932,-14.5 -8.9792,-9.25 9.25,8.97915 c 8.5912,8.33963 9.7052,9.52085 8.9792,9.52085 -0.149,0 -4.3115,-4.1625 -9.25,-9.25 z m -15.0742,-14 -1.905,-2.25 2.25,1.90499 c 2.1144,1.79022 2.7052,2.59501 1.905,2.59501 -0.1898,0 -1.2023,-1.0125 -2.25,-2.25 z m -119.5925,-57.43311 c 0.7219,-0.28887 1.5844,-0.25335 1.9167,0.0789 0.3323,0.33229 -0.2584,0.56864 -1.3125,0.52522 -1.165,-0.048 -1.4019,-0.28494 -0.6042,-0.60416 z m -12,-2 c 0.7219,-0.28887 1.5844,-0.25335 1.9167,0.0789 0.3323,0.33229 -0.2584,0.56864 -1.3125,0.52522 -1.165,-0.048 -1.4019,-0.28494 -0.6042,-0.60416 z m -7,-1 c 0.7219,-0.28887 1.5844,-0.25335 1.9167,0.0789 0.3323,0.33229 -0.2584,0.56864 -1.3125,0.52522 -1.165,-0.048 -1.4019,-0.28494 -0.6042,-0.60416 z m -11.5435,-1.00988 c 0.973,-0.25354 2.323,-0.23687 3,0.0371 0.6771,0.27393 -0.119,0.48137 -1.769,0.46099 -1.65,-0.0204 -2.2039,-0.2445 -1.231,-0.49804 z M 1261.4889,566.5 c 0,-96.25 0.1175,-135.47688 0.261,-87.17084 0.1436,48.30604 0.1436,127.05604 0,175 -0.1436,47.94396 -0.261,8.42084 -0.261,-87.82916 z m -1.294,-190 c 0.02,-1.65 0.2445,-2.20394 0.4981,-1.23097 0.2535,0.97297 0.2369,2.32297 -0.037,3 -0.2739,0.67703 -0.4813,-0.11903 -0.461,-1.76903 z M 741.15789,367 c 0,-1.375 0.22698,-1.9375 0.50439,-1.25 0.27741,0.6875 0.27741,1.8125 0,2.5 -0.27741,0.6875 -0.50439,0.125 -0.50439,-1.25 z m 518.00001,-2 c 0,-1.375 0.227,-1.9375 0.5044,-1.25 0.2774,0.6875 0.2774,1.8125 0,2.5 -0.2774,0.6875 -0.5044,0.125 -0.5044,-1.25 z m -517.00001,-6 c 0,-1.375 0.22698,-1.9375 0.50439,-1.25 0.27741,0.6875 0.27741,1.8125 0,2.5 -0.27741,0.6875 -0.50439,0.125 -0.50439,-1.25 z m 516.00001,-2 c 0,-1.375 0.227,-1.9375 0.5044,-1.25 0.2774,0.6875 0.2774,1.8125 0,2.5 -0.2774,0.6875 -0.5044,0.125 -0.5044,-1.25 z m -1.079,-6.58333 c 0.048,-1.16495 0.285,-1.4019 0.6042,-0.60417 0.2889,0.72187 0.2534,1.58438 -0.079,1.91667 -0.3323,0.33229 -0.5687,-0.25834 -0.5253,-1.3125 z m -512.99995,-4 c 0.048,-1.16495 0.28494,-1.4019 0.60416,-0.60417 0.28887,0.72187 0.25335,1.58438 -0.0789,1.91667 -0.33229,0.33229 -0.56864,-0.25834 -0.52522,-1.3125 z M 1197.8724,224.25 c -1.2438,-1.58606 -1.2085,-1.62143 0.3776,-0.37756 1.6657,1.30637 2.1955,2.12756 1.3724,2.12756 -0.2076,0 -0.9951,-0.7875 -1.75,-1.75 z M 804,222.62244 c 0,-0.20765 0.7875,-0.99515 1.75,-1.75 1.58606,-1.24387 1.62143,-1.2085 0.37756,0.37756 C 804.82119,222.91575 804,223.44548 804,222.62244 Z M 1185.4765,210.75 1177.5,202.5 l 8.25,7.97654 c 7.6623,7.40837 8.7059,8.52346 7.9765,8.52346 -0.1504,0 -3.8629,-3.7125 -8.25,-8.25 z M 826.5,200 c 0.99549,-1.1 2.03498,-2 2.30998,-2 0.275,0 -0.31449,0.9 -1.30998,2 -0.99549,1.1 -2.03498,2 -2.30998,2 -0.275,0 0.31449,-0.9 1.30998,-2 z m 343.905,-3.25 -1.905,-2.25 2.25,1.90499 c 2.1144,1.79022 2.7052,2.59501 1.905,2.59501 -0.1898,0 -1.2023,-1.0125 -2.25,-2.25 z M 833,194.62244 c 0,-0.20765 0.7875,-0.99515 1.75,-1.75 1.58606,-1.24387 1.62143,-1.2085 0.37756,0.37756 C 833.82119,194.91575 833,195.44548 833,194.62244 Z m 217.8125,-56.30555 c 0.7219,-0.28887 1.5844,-0.25335 1.9167,0.0789 0.3323,0.33229 -0.2584,0.56864 -1.3125,0.52522 -1.165,-0.048 -1.4019,-0.28494 -0.6042,-0.60416 z m -90,-2 c 0.72187,-0.28887 1.58438,-0.25335 1.91667,0.0789 0.33229,0.33229 -0.25834,0.56864 -1.3125,0.52522 -1.16495,-0.048 -1.4019,-0.28494 -0.60417,-0.60416 z m 78,0 c 0.7219,-0.28887 1.5844,-0.25335 1.9167,0.0789 0.3323,0.33229 -0.2584,0.56864 -1.3125,0.52522 -1.165,-0.048 -1.4019,-0.28494 -0.6042,-0.60416 z M 967.75,135.33772 c 0.6875,-0.27741 1.8125,-0.27741 2.5,0 0.6875,0.27741 0.125,0.50439 -1.25,0.50439 -1.375,0 -1.9375,-0.22698 -1.25,-0.50439 z m 64.0625,-0.0208 c 0.7219,-0.28887 1.5844,-0.25335 1.9167,0.0789 0.3323,0.33229 -0.2584,0.56864 -1.3125,0.52522 -1.165,-0.048 -1.4019,-0.28494 -0.6042,-0.60416 z M 976.25,134.31067 c 0.9625,-0.25152 2.5375,-0.25152 3.5,0 0.9625,0.25153 0.175,0.45733 -1.75,0.45733 -1.925,0 -2.7125,-0.2058 -1.75,-0.45733 z m 45,0 c 0.9625,-0.25152 2.5375,-0.25152 3.5,0 0.9625,0.25153 0.175,0.45733 -1.75,0.45733 -1.925,0 -2.7125,-0.2058 -1.75,-0.45733 z m -24.96983,-1.04694 c 2.6291,-0.20668 6.67913,-0.20418 9.00003,0.006 2.3209,0.20972 0.1698,0.37882 -4.7802,0.37577 -4.95,-0.003 -6.84892,-0.17464 -4.21983,-0.38131 z"
         id="path5" />
      <path
         style="fill:#0049ac"
         d="m 1259.9809,1167.2826 c -0.02,-99.3509 -0.5996,-120.1026 -4.0084,-143.5251 C 1242.2374,929.38027 1188.5923,844.98034 1109,792.52508 c -43.7808,-28.85366 -91.9681,-46.45311 -145.5,-53.14092 -12.32378,-1.53962 -26.48188,-1.79363 -118.25,-2.12152 L 741,736.89016 V 554.6315 c 0,-192.58977 -0.0651,-189.52174 4.49968,-212.16882 7.77579,-38.57796 24.61168,-75.44489 49.18364,-107.70144 9.12298,-11.97607 30.15198,-33.41326 42.31668,-43.13808 20.53622,-16.41725 50.29302,-33.26403 74.43484,-42.1412 12.9144,-4.74874 36.9211,-10.79911 52.06516,-13.12188 15.05801,-2.30958 56.9798,-2.61196 71,-0.51213 46.6179,6.98207 86.8932,23.48902 123,50.41194 13.7331,10.24006 40.6889,36.98127 50.34,49.93923 26.8555,36.05742 42.9882,74.3347 50.337,119.43195 l 2.26,13.86893 0.3093,185.75 0.3093,185.75 179.7222,8.4e-4 c 114.0813,5.3e-4 183.6381,0.37217 190.4438,1.01755 59.9756,5.68744 114.5523,30.63593 156.9283,71.73618 15.4911,15.02476 25.8022,27.3405 37.0435,44.24543 9.6913,14.57399 21.4166,37.52184 27.3029,53.43484 4.7219,12.76538 10.8157,36.87663 13.0323,51.56516 2.292,15.18754 3.1148,51.4483 1.5049,66.3167 -8.3506,77.1203 -50.7174,146.5167 -115.5335,189.2431 -32.1701,21.2063 -65.7076,34.0398 -106.1311,40.6121 l -13.8689,2.2549 -185.75,0.3192 -185.75,0.3192 z"
         id="path4" />
    </g>
  </g>
</svg>
